<mxfile host="app.diagrams.net" modified="2023-06-02T13:02:48.733Z" agent="Mozilla/5.0 (Windows NT 10.0; Win64; x64) AppleWebKit/537.36 (KHTML, like Gecko) Chrome/114.0.0.0 Safari/537.36" etag="8tyrFES7jkLKRmlBBlPR" version="21.3.7" type="github">
  <diagram name="Page-1" id="5d7acffa-a066-3a61-03fe-96351882024d">
    <mxGraphModel dx="1434" dy="2460" grid="1" gridSize="10" guides="1" tooltips="1" connect="1" arrows="1" fold="1" page="1" pageScale="1" pageWidth="1100" pageHeight="850" background="#ffffff" math="0" shadow="0">
      <root>
        <mxCell id="0" />
        <mxCell id="1" parent="0" />
        <mxCell id="5fzQaw5zeGcvdnY9jMus-81" value="Animals" style="swimlane;fontStyle=1;align=center;verticalAlign=top;childLayout=stackLayout;horizontal=1;startSize=26;horizontalStack=0;resizeParent=1;resizeParentMax=0;resizeLast=0;collapsible=1;marginBottom=0;whiteSpace=wrap;html=1;" vertex="1" parent="1">
          <mxGeometry x="450" y="-1580" width="140" height="130" as="geometry" />
        </mxCell>
        <mxCell id="5fzQaw5zeGcvdnY9jMus-82" value="-speciesName : String&lt;br&gt;-weight&amp;nbsp; &amp;nbsp; &amp;nbsp; &amp;nbsp; &amp;nbsp; &amp;nbsp; : double&lt;br&gt;-age&amp;nbsp; &amp;nbsp; &amp;nbsp; &amp;nbsp; &amp;nbsp; &amp;nbsp; &amp;nbsp; &amp;nbsp; &amp;nbsp;: int" style="text;strokeColor=none;fillColor=none;align=left;verticalAlign=top;spacingLeft=4;spacingRight=4;overflow=hidden;rotatable=0;points=[[0,0.5],[1,0.5]];portConstraint=eastwest;whiteSpace=wrap;html=1;" vertex="1" parent="5fzQaw5zeGcvdnY9jMus-81">
          <mxGeometry y="26" width="140" height="54" as="geometry" />
        </mxCell>
        <mxCell id="5fzQaw5zeGcvdnY9jMus-83" value="" style="line;strokeWidth=1;fillColor=none;align=left;verticalAlign=middle;spacingTop=-1;spacingLeft=3;spacingRight=3;rotatable=0;labelPosition=right;points=[];portConstraint=eastwest;strokeColor=inherit;" vertex="1" parent="5fzQaw5zeGcvdnY9jMus-81">
          <mxGeometry y="80" width="140" height="8" as="geometry" />
        </mxCell>
        <mxCell id="5fzQaw5zeGcvdnY9jMus-84" value="+ getDosage()&amp;nbsp; &amp;nbsp; &amp;nbsp; &amp;nbsp; &amp;nbsp; &amp;nbsp; :&lt;br&gt;+ getFeedSchedule() :" style="text;strokeColor=none;fillColor=none;align=left;verticalAlign=top;spacingLeft=4;spacingRight=4;overflow=hidden;rotatable=0;points=[[0,0.5],[1,0.5]];portConstraint=eastwest;whiteSpace=wrap;html=1;" vertex="1" parent="5fzQaw5zeGcvdnY9jMus-81">
          <mxGeometry y="88" width="140" height="42" as="geometry" />
        </mxCell>
        <mxCell id="5fzQaw5zeGcvdnY9jMus-85" value="Horses" style="swimlane;fontStyle=1;align=center;verticalAlign=top;childLayout=stackLayout;horizontal=1;startSize=26;horizontalStack=0;resizeParent=1;resizeParentMax=0;resizeLast=0;collapsible=1;marginBottom=0;whiteSpace=wrap;html=1;" vertex="1" parent="1">
          <mxGeometry x="130" y="-1300" width="160" height="70" as="geometry" />
        </mxCell>
        <mxCell id="5fzQaw5zeGcvdnY9jMus-86" value="" style="line;strokeWidth=1;fillColor=none;align=left;verticalAlign=middle;spacingTop=-1;spacingLeft=3;spacingRight=3;rotatable=0;labelPosition=right;points=[];portConstraint=eastwest;strokeColor=inherit;" vertex="1" parent="5fzQaw5zeGcvdnY9jMus-85">
          <mxGeometry y="26" width="160" height="8" as="geometry" />
        </mxCell>
        <mxCell id="5fzQaw5zeGcvdnY9jMus-87" value="+ getDosage()&amp;nbsp; &amp;nbsp; &amp;nbsp; &amp;nbsp; &amp;nbsp; &amp;nbsp; :&lt;br style=&quot;border-color: var(--border-color);&quot;&gt;+ getFeedSchedule() :" style="text;strokeColor=none;fillColor=none;align=left;verticalAlign=top;spacingLeft=4;spacingRight=4;overflow=hidden;rotatable=0;points=[[0,0.5],[1,0.5]];portConstraint=eastwest;whiteSpace=wrap;html=1;" vertex="1" parent="5fzQaw5zeGcvdnY9jMus-85">
          <mxGeometry y="34" width="160" height="36" as="geometry" />
        </mxCell>
        <mxCell id="5fzQaw5zeGcvdnY9jMus-88" value="Rodents" style="swimlane;fontStyle=1;align=center;verticalAlign=top;childLayout=stackLayout;horizontal=1;startSize=26;horizontalStack=0;resizeParent=1;resizeParentMax=0;resizeLast=0;collapsible=1;marginBottom=0;whiteSpace=wrap;html=1;" vertex="1" parent="1">
          <mxGeometry x="760" y="-1300" width="160" height="70" as="geometry" />
        </mxCell>
        <mxCell id="5fzQaw5zeGcvdnY9jMus-89" value="" style="line;strokeWidth=1;fillColor=none;align=left;verticalAlign=middle;spacingTop=-1;spacingLeft=3;spacingRight=3;rotatable=0;labelPosition=right;points=[];portConstraint=eastwest;strokeColor=inherit;" vertex="1" parent="5fzQaw5zeGcvdnY9jMus-88">
          <mxGeometry y="26" width="160" height="8" as="geometry" />
        </mxCell>
        <mxCell id="5fzQaw5zeGcvdnY9jMus-90" value="+ getDosage()&amp;nbsp; &amp;nbsp; &amp;nbsp; &amp;nbsp; &amp;nbsp; &amp;nbsp; :&lt;br style=&quot;border-color: var(--border-color);&quot;&gt;+ getFeedSchedule() :" style="text;strokeColor=none;fillColor=none;align=left;verticalAlign=top;spacingLeft=4;spacingRight=4;overflow=hidden;rotatable=0;points=[[0,0.5],[1,0.5]];portConstraint=eastwest;whiteSpace=wrap;html=1;" vertex="1" parent="5fzQaw5zeGcvdnY9jMus-88">
          <mxGeometry y="34" width="160" height="36" as="geometry" />
        </mxCell>
        <mxCell id="5fzQaw5zeGcvdnY9jMus-91" value="&amp;lt;&amp;lt;extend&amp;gt;&amp;gt;" style="html=1;verticalAlign=bottom;labelBackgroundColor=none;endArrow=open;endFill=0;dashed=1;rounded=0;entryX=0;entryY=1.048;entryDx=0;entryDy=0;entryPerimeter=0;exitX=0.5;exitY=0;exitDx=0;exitDy=0;" edge="1" parent="1" source="5fzQaw5zeGcvdnY9jMus-85" target="5fzQaw5zeGcvdnY9jMus-84">
          <mxGeometry x="0.0827" width="160" relative="1" as="geometry">
            <mxPoint x="270" y="-1410" as="sourcePoint" />
            <mxPoint x="430" y="-1410" as="targetPoint" />
            <mxPoint as="offset" />
          </mxGeometry>
        </mxCell>
        <mxCell id="5fzQaw5zeGcvdnY9jMus-92" value="&amp;lt;&amp;lt;extend&amp;gt;&amp;gt;" style="html=1;verticalAlign=bottom;labelBackgroundColor=none;endArrow=open;endFill=0;dashed=1;rounded=0;entryX=0.5;entryY=1;entryDx=0;entryDy=0;entryPerimeter=0;exitX=0.5;exitY=0;exitDx=0;exitDy=0;" edge="1" parent="1" source="5fzQaw5zeGcvdnY9jMus-112" target="5fzQaw5zeGcvdnY9jMus-84">
          <mxGeometry x="0.0667" width="160" relative="1" as="geometry">
            <mxPoint x="520" y="-1380" as="sourcePoint" />
            <mxPoint x="530" y="-1440" as="targetPoint" />
            <mxPoint as="offset" />
          </mxGeometry>
        </mxCell>
        <mxCell id="5fzQaw5zeGcvdnY9jMus-93" value="&amp;lt;&amp;lt;extend&amp;gt;&amp;gt;" style="html=1;verticalAlign=bottom;labelBackgroundColor=none;endArrow=open;endFill=0;dashed=1;rounded=0;entryX=1.021;entryY=1.024;entryDx=0;entryDy=0;entryPerimeter=0;exitX=0.5;exitY=0;exitDx=0;exitDy=0;" edge="1" parent="1" source="5fzQaw5zeGcvdnY9jMus-88" target="5fzQaw5zeGcvdnY9jMus-84">
          <mxGeometry x="0.0581" y="-1" width="160" relative="1" as="geometry">
            <mxPoint x="700" y="-1420" as="sourcePoint" />
            <mxPoint x="860" y="-1420" as="targetPoint" />
            <mxPoint x="1" as="offset" />
          </mxGeometry>
        </mxCell>
        <mxCell id="5fzQaw5zeGcvdnY9jMus-94" value="Tiger" style="swimlane;fontStyle=1;align=center;verticalAlign=top;childLayout=stackLayout;horizontal=1;startSize=26;horizontalStack=0;resizeParent=1;resizeParentMax=0;resizeLast=0;collapsible=1;marginBottom=0;whiteSpace=wrap;html=1;" vertex="1" parent="1">
          <mxGeometry x="400" y="-1080" width="130" height="70" as="geometry" />
        </mxCell>
        <mxCell id="5fzQaw5zeGcvdnY9jMus-95" value="" style="line;strokeWidth=1;fillColor=none;align=left;verticalAlign=middle;spacingTop=-1;spacingLeft=3;spacingRight=3;rotatable=0;labelPosition=right;points=[];portConstraint=eastwest;strokeColor=inherit;" vertex="1" parent="5fzQaw5zeGcvdnY9jMus-94">
          <mxGeometry y="26" width="130" height="8" as="geometry" />
        </mxCell>
        <mxCell id="5fzQaw5zeGcvdnY9jMus-96" value="+ getDosage()&amp;nbsp; &amp;nbsp; &amp;nbsp; &amp;nbsp; &amp;nbsp; &amp;nbsp; :&lt;br style=&quot;border-color: var(--border-color);&quot;&gt;+ getFeedSchedule() :" style="text;strokeColor=none;fillColor=none;align=left;verticalAlign=top;spacingLeft=4;spacingRight=4;overflow=hidden;rotatable=0;points=[[0,0.5],[1,0.5]];portConstraint=eastwest;whiteSpace=wrap;html=1;" vertex="1" parent="5fzQaw5zeGcvdnY9jMus-94">
          <mxGeometry y="34" width="130" height="36" as="geometry" />
        </mxCell>
        <mxCell id="5fzQaw5zeGcvdnY9jMus-97" value="Lion" style="swimlane;fontStyle=1;align=center;verticalAlign=top;childLayout=stackLayout;horizontal=1;startSize=26;horizontalStack=0;resizeParent=1;resizeParentMax=0;resizeLast=0;collapsible=1;marginBottom=0;whiteSpace=wrap;html=1;" vertex="1" parent="1">
          <mxGeometry x="550" y="-1080" width="130" height="70" as="geometry" />
        </mxCell>
        <mxCell id="5fzQaw5zeGcvdnY9jMus-98" value="" style="line;strokeWidth=1;fillColor=none;align=left;verticalAlign=middle;spacingTop=-1;spacingLeft=3;spacingRight=3;rotatable=0;labelPosition=right;points=[];portConstraint=eastwest;strokeColor=inherit;" vertex="1" parent="5fzQaw5zeGcvdnY9jMus-97">
          <mxGeometry y="26" width="130" height="8" as="geometry" />
        </mxCell>
        <mxCell id="5fzQaw5zeGcvdnY9jMus-99" value="+ getDosage()&amp;nbsp; &amp;nbsp; &amp;nbsp; &amp;nbsp; &amp;nbsp; &amp;nbsp; :&lt;br style=&quot;border-color: var(--border-color);&quot;&gt;+ getFeedSchedule() :" style="text;strokeColor=none;fillColor=none;align=left;verticalAlign=top;spacingLeft=4;spacingRight=4;overflow=hidden;rotatable=0;points=[[0,0.5],[1,0.5]];portConstraint=eastwest;whiteSpace=wrap;html=1;" vertex="1" parent="5fzQaw5zeGcvdnY9jMus-97">
          <mxGeometry y="34" width="130" height="36" as="geometry" />
        </mxCell>
        <mxCell id="5fzQaw5zeGcvdnY9jMus-100" value="Rat" style="swimlane;fontStyle=1;align=center;verticalAlign=top;childLayout=stackLayout;horizontal=1;startSize=26;horizontalStack=0;resizeParent=1;resizeParentMax=0;resizeLast=0;collapsible=1;marginBottom=0;whiteSpace=wrap;html=1;" vertex="1" parent="1">
          <mxGeometry x="740" y="-1080" width="130" height="70" as="geometry" />
        </mxCell>
        <mxCell id="5fzQaw5zeGcvdnY9jMus-101" value="" style="line;strokeWidth=1;fillColor=none;align=left;verticalAlign=middle;spacingTop=-1;spacingLeft=3;spacingRight=3;rotatable=0;labelPosition=right;points=[];portConstraint=eastwest;strokeColor=inherit;" vertex="1" parent="5fzQaw5zeGcvdnY9jMus-100">
          <mxGeometry y="26" width="130" height="8" as="geometry" />
        </mxCell>
        <mxCell id="5fzQaw5zeGcvdnY9jMus-102" value="+ getDosage()&amp;nbsp; &amp;nbsp; &amp;nbsp; &amp;nbsp; &amp;nbsp; &amp;nbsp; :&lt;br style=&quot;border-color: var(--border-color);&quot;&gt;+ getFeedSchedule() :" style="text;strokeColor=none;fillColor=none;align=left;verticalAlign=top;spacingLeft=4;spacingRight=4;overflow=hidden;rotatable=0;points=[[0,0.5],[1,0.5]];portConstraint=eastwest;whiteSpace=wrap;html=1;" vertex="1" parent="5fzQaw5zeGcvdnY9jMus-100">
          <mxGeometry y="34" width="130" height="36" as="geometry" />
        </mxCell>
        <mxCell id="5fzQaw5zeGcvdnY9jMus-103" value="Beaver" style="swimlane;fontStyle=1;align=center;verticalAlign=top;childLayout=stackLayout;horizontal=1;startSize=26;horizontalStack=0;resizeParent=1;resizeParentMax=0;resizeLast=0;collapsible=1;marginBottom=0;whiteSpace=wrap;html=1;" vertex="1" parent="1">
          <mxGeometry x="910" y="-1080" width="130" height="70" as="geometry" />
        </mxCell>
        <mxCell id="5fzQaw5zeGcvdnY9jMus-104" value="" style="line;strokeWidth=1;fillColor=none;align=left;verticalAlign=middle;spacingTop=-1;spacingLeft=3;spacingRight=3;rotatable=0;labelPosition=right;points=[];portConstraint=eastwest;strokeColor=inherit;" vertex="1" parent="5fzQaw5zeGcvdnY9jMus-103">
          <mxGeometry y="26" width="130" height="8" as="geometry" />
        </mxCell>
        <mxCell id="5fzQaw5zeGcvdnY9jMus-105" value="+ getDosage()&amp;nbsp; &amp;nbsp; &amp;nbsp; &amp;nbsp; &amp;nbsp; &amp;nbsp; :&lt;br style=&quot;border-color: var(--border-color);&quot;&gt;+ getFeedSchedule() :" style="text;strokeColor=none;fillColor=none;align=left;verticalAlign=top;spacingLeft=4;spacingRight=4;overflow=hidden;rotatable=0;points=[[0,0.5],[1,0.5]];portConstraint=eastwest;whiteSpace=wrap;html=1;" vertex="1" parent="5fzQaw5zeGcvdnY9jMus-103">
          <mxGeometry y="34" width="130" height="36" as="geometry" />
        </mxCell>
        <mxCell id="5fzQaw5zeGcvdnY9jMus-106" value="Donkey" style="swimlane;fontStyle=1;align=center;verticalAlign=top;childLayout=stackLayout;horizontal=1;startSize=26;horizontalStack=0;resizeParent=1;resizeParentMax=0;resizeLast=0;collapsible=1;marginBottom=0;whiteSpace=wrap;html=1;" vertex="1" parent="1">
          <mxGeometry x="210" y="-1080" width="140" height="70" as="geometry" />
        </mxCell>
        <mxCell id="5fzQaw5zeGcvdnY9jMus-107" value="" style="line;strokeWidth=1;fillColor=none;align=left;verticalAlign=middle;spacingTop=-1;spacingLeft=3;spacingRight=3;rotatable=0;labelPosition=right;points=[];portConstraint=eastwest;strokeColor=inherit;" vertex="1" parent="5fzQaw5zeGcvdnY9jMus-106">
          <mxGeometry y="26" width="140" height="8" as="geometry" />
        </mxCell>
        <mxCell id="5fzQaw5zeGcvdnY9jMus-108" value="+ getDosage()&amp;nbsp; &amp;nbsp; &amp;nbsp; &amp;nbsp; &amp;nbsp; &amp;nbsp; :&lt;br style=&quot;border-color: var(--border-color);&quot;&gt;+ getFeedSchedule() :" style="text;strokeColor=none;fillColor=none;align=left;verticalAlign=top;spacingLeft=4;spacingRight=4;overflow=hidden;rotatable=0;points=[[0,0.5],[1,0.5]];portConstraint=eastwest;whiteSpace=wrap;html=1;" vertex="1" parent="5fzQaw5zeGcvdnY9jMus-106">
          <mxGeometry y="34" width="140" height="36" as="geometry" />
        </mxCell>
        <mxCell id="5fzQaw5zeGcvdnY9jMus-109" value="Horse" style="swimlane;fontStyle=1;align=center;verticalAlign=top;childLayout=stackLayout;horizontal=1;startSize=26;horizontalStack=0;resizeParent=1;resizeParentMax=0;resizeLast=0;collapsible=1;marginBottom=0;whiteSpace=wrap;html=1;" vertex="1" parent="1">
          <mxGeometry x="10" y="-1080" width="140" height="70" as="geometry" />
        </mxCell>
        <mxCell id="5fzQaw5zeGcvdnY9jMus-110" value="" style="line;strokeWidth=1;fillColor=none;align=left;verticalAlign=middle;spacingTop=-1;spacingLeft=3;spacingRight=3;rotatable=0;labelPosition=right;points=[];portConstraint=eastwest;strokeColor=inherit;" vertex="1" parent="5fzQaw5zeGcvdnY9jMus-109">
          <mxGeometry y="26" width="140" height="8" as="geometry" />
        </mxCell>
        <mxCell id="5fzQaw5zeGcvdnY9jMus-111" value="+ getDosage()&amp;nbsp; &amp;nbsp; &amp;nbsp; &amp;nbsp; &amp;nbsp; &amp;nbsp; :&lt;br style=&quot;border-color: var(--border-color);&quot;&gt;+ getFeedSchedule() :" style="text;strokeColor=none;fillColor=none;align=left;verticalAlign=top;spacingLeft=4;spacingRight=4;overflow=hidden;rotatable=0;points=[[0,0.5],[1,0.5]];portConstraint=eastwest;whiteSpace=wrap;html=1;" vertex="1" parent="5fzQaw5zeGcvdnY9jMus-109">
          <mxGeometry y="34" width="140" height="36" as="geometry" />
        </mxCell>
        <mxCell id="5fzQaw5zeGcvdnY9jMus-112" value="Feniles" style="swimlane;fontStyle=1;align=center;verticalAlign=top;childLayout=stackLayout;horizontal=1;startSize=26;horizontalStack=0;resizeParent=1;resizeParentMax=0;resizeLast=0;collapsible=1;marginBottom=0;whiteSpace=wrap;html=1;" vertex="1" parent="1">
          <mxGeometry x="440" y="-1300" width="160" height="70" as="geometry" />
        </mxCell>
        <mxCell id="5fzQaw5zeGcvdnY9jMus-113" value="" style="line;strokeWidth=1;fillColor=none;align=left;verticalAlign=middle;spacingTop=-1;spacingLeft=3;spacingRight=3;rotatable=0;labelPosition=right;points=[];portConstraint=eastwest;strokeColor=inherit;" vertex="1" parent="5fzQaw5zeGcvdnY9jMus-112">
          <mxGeometry y="26" width="160" height="8" as="geometry" />
        </mxCell>
        <mxCell id="5fzQaw5zeGcvdnY9jMus-114" value="+ getDosage()&amp;nbsp; &amp;nbsp; &amp;nbsp; &amp;nbsp; &amp;nbsp; &amp;nbsp; :&lt;br style=&quot;border-color: var(--border-color);&quot;&gt;+ getFeedSchedule() :" style="text;strokeColor=none;fillColor=none;align=left;verticalAlign=top;spacingLeft=4;spacingRight=4;overflow=hidden;rotatable=0;points=[[0,0.5],[1,0.5]];portConstraint=eastwest;whiteSpace=wrap;html=1;" vertex="1" parent="5fzQaw5zeGcvdnY9jMus-112">
          <mxGeometry y="34" width="160" height="36" as="geometry" />
        </mxCell>
        <mxCell id="5fzQaw5zeGcvdnY9jMus-115" value="&amp;lt;&amp;lt;extend&amp;gt;&amp;gt;" style="html=1;verticalAlign=bottom;labelBackgroundColor=none;endArrow=open;endFill=0;dashed=1;rounded=0;entryX=0.306;entryY=1;entryDx=0;entryDy=0;entryPerimeter=0;exitX=0.5;exitY=0;exitDx=0;exitDy=0;" edge="1" parent="1" source="5fzQaw5zeGcvdnY9jMus-109" target="5fzQaw5zeGcvdnY9jMus-87">
          <mxGeometry x="0.0496" y="2" width="160" relative="1" as="geometry">
            <mxPoint x="470" y="-1130" as="sourcePoint" />
            <mxPoint x="630" y="-1130" as="targetPoint" />
            <mxPoint as="offset" />
          </mxGeometry>
        </mxCell>
        <mxCell id="5fzQaw5zeGcvdnY9jMus-116" value="&amp;lt;&amp;lt;extend&amp;gt;&amp;gt;" style="html=1;verticalAlign=bottom;labelBackgroundColor=none;endArrow=open;endFill=0;dashed=1;rounded=0;entryX=0.456;entryY=0.972;entryDx=0;entryDy=0;entryPerimeter=0;" edge="1" parent="1" target="5fzQaw5zeGcvdnY9jMus-87">
          <mxGeometry x="0.0349" width="160" relative="1" as="geometry">
            <mxPoint x="280" y="-1084" as="sourcePoint" />
            <mxPoint x="630" y="-1230" as="targetPoint" />
            <mxPoint as="offset" />
          </mxGeometry>
        </mxCell>
        <mxCell id="5fzQaw5zeGcvdnY9jMus-117" value="&amp;lt;&amp;lt;extend&amp;gt;&amp;gt;" style="html=1;verticalAlign=bottom;labelBackgroundColor=none;endArrow=open;endFill=0;dashed=1;rounded=0;exitX=0.077;exitY=-0.071;exitDx=0;exitDy=0;exitPerimeter=0;" edge="1" parent="1" source="5fzQaw5zeGcvdnY9jMus-100">
          <mxGeometry x="0.7264" y="-104" width="160" relative="1" as="geometry">
            <mxPoint x="700" y="-1140" as="sourcePoint" />
            <mxPoint x="830" y="-1230" as="targetPoint" />
            <mxPoint as="offset" />
          </mxGeometry>
        </mxCell>
        <mxCell id="5fzQaw5zeGcvdnY9jMus-118" value="&amp;lt;&amp;lt;extend&amp;gt;&amp;gt;" style="html=1;verticalAlign=bottom;labelBackgroundColor=none;endArrow=open;endFill=0;dashed=1;rounded=0;entryX=0.675;entryY=1.111;entryDx=0;entryDy=0;entryPerimeter=0;exitX=0.323;exitY=-0.071;exitDx=0;exitDy=0;exitPerimeter=0;" edge="1" parent="1" source="5fzQaw5zeGcvdnY9jMus-103" target="5fzQaw5zeGcvdnY9jMus-90">
          <mxGeometry x="0.7953" y="101" width="160" relative="1" as="geometry">
            <mxPoint x="980" y="-1090" as="sourcePoint" />
            <mxPoint x="990" y="-910" as="targetPoint" />
            <mxPoint as="offset" />
          </mxGeometry>
        </mxCell>
        <mxCell id="5fzQaw5zeGcvdnY9jMus-119" value="&amp;lt;&amp;lt;extend&amp;gt;&amp;gt;" style="html=1;verticalAlign=bottom;labelBackgroundColor=none;endArrow=open;endFill=0;dashed=1;rounded=0;" edge="1" parent="1" source="5fzQaw5zeGcvdnY9jMus-97" target="5fzQaw5zeGcvdnY9jMus-114">
          <mxGeometry width="160" relative="1" as="geometry">
            <mxPoint x="430" y="-930" as="sourcePoint" />
            <mxPoint x="590" y="-930" as="targetPoint" />
          </mxGeometry>
        </mxCell>
        <mxCell id="5fzQaw5zeGcvdnY9jMus-120" value="&amp;lt;&amp;lt;extend&amp;gt;&amp;gt;" style="html=1;verticalAlign=bottom;labelBackgroundColor=none;endArrow=open;endFill=0;dashed=1;rounded=0;entryX=0.394;entryY=1.056;entryDx=0;entryDy=0;entryPerimeter=0;exitX=0.1;exitY=-0.057;exitDx=0;exitDy=0;exitPerimeter=0;" edge="1" parent="1" source="5fzQaw5zeGcvdnY9jMus-94" target="5fzQaw5zeGcvdnY9jMus-114">
          <mxGeometry width="160" relative="1" as="geometry">
            <mxPoint x="490" y="-1160" as="sourcePoint" />
            <mxPoint x="650" y="-1160" as="targetPoint" />
          </mxGeometry>
        </mxCell>
        <mxCell id="5fzQaw5zeGcvdnY9jMus-122" value="&lt;font style=&quot;font-size: 30px;&quot;&gt;Zoo Management -Cihat Köse&lt;/font&gt;" style="text;html=1;align=center;verticalAlign=middle;resizable=0;points=[];autosize=1;strokeColor=none;fillColor=none;" vertex="1" parent="1">
          <mxGeometry x="310" y="-1682" width="420" height="50" as="geometry" />
        </mxCell>
      </root>
    </mxGraphModel>
  </diagram>
</mxfile>
